<?xml version="1.0" encoding="UTF-8" standalone="no"?>
<svg
   id="svg8"
   version="1.1"
   viewBox="0 0 92 92"
   height="92mm"
   width="92mm"
   sodipodi:docname="searxng-firefox.svg"
   xml:space="preserve"
   inkscape:version="1.3 (0e150ed6c4, 2023-07-21)"
   xmlns:inkscape="http://www.inkscape.org/namespaces/inkscape"
   xmlns:sodipodi="http://sodipodi.sourceforge.net/DTD/sodipodi-0.dtd"
   xmlns="http://www.w3.org/2000/svg"
   xmlns:svg="http://www.w3.org/2000/svg"
   xmlns:rdf="http://www.w3.org/1999/02/22-rdf-syntax-ns#"
   xmlns:cc="http://creativecommons.org/ns#"
   xmlns:dc="http://purl.org/dc/elements/1.1/"><sodipodi:namedview
     id="namedview1"
     pagecolor="#ffffff"
     bordercolor="#111111"
     borderopacity="1"
     inkscape:showpageshadow="0"
     inkscape:pageopacity="0"
     inkscape:pagecheckerboard="1"
     inkscape:deskcolor="#d1d1d1"
     inkscape:document-units="mm"
     inkscape:zoom="1.7642818"
     inkscape:cx="123.27962"
     inkscape:cy="117.61159"
     inkscape:window-width="2560"
     inkscape:window-height="1481"
     inkscape:window-x="0"
     inkscape:window-y="0"
     inkscape:window-maximized="1"
     inkscape:current-layer="layer1" /><defs
     id="defs2"><radialGradient
       id="a"
       cx="-1186.91"
       cy="-517.676"
       r="90.78"
       gradientTransform="translate(1258.441,534.061)"
       gradientUnits="userSpaceOnUse"><stop
         offset="0"
         stop-color="#fff36e"
         id="stop1" /><stop
         offset=".5"
         stop-color="#fc4055"
         id="stop2" /><stop
         offset="1"
         stop-color="#e31587"
         id="stop3" /></radialGradient><radialGradient
       id="b"
       cx="-1251.812"
       cy="-513.921"
       r="53.726"
       gradientTransform="translate(1258.441,534.061)"
       gradientUnits="userSpaceOnUse"><stop
         offset=".001"
         stop-color="#c60084"
         id="stop4" /><stop
         offset="1"
         stop-color="#fc4055"
         stop-opacity="0"
         id="stop5" /></radialGradient><radialGradient
       id="c"
       cx="-1179.15"
       cy="-522.842"
       r="106.599"
       gradientTransform="translate(1258.441,534.061)"
       gradientUnits="userSpaceOnUse"><stop
         offset="0"
         stop-color="#ffde67"
         stop-opacity=".6"
         id="stop6" /><stop
         offset=".093"
         stop-color="#ffd966"
         stop-opacity=".581"
         id="stop7" /><stop
         offset=".203"
         stop-color="#ffca65"
         stop-opacity=".525"
         id="stop8" /><stop
         offset=".321"
         stop-color="#feb262"
         stop-opacity=".432"
         id="stop9" /><stop
         offset=".446"
         stop-color="#fe8f5e"
         stop-opacity=".302"
         id="stop10" /><stop
         offset=".573"
         stop-color="#fd6459"
         stop-opacity=".137"
         id="stop11" /><stop
         offset=".664"
         stop-color="#fc4055"
         stop-opacity="0"
         id="stop12" /></radialGradient><radialGradient
       id="d"
       cx="42.285"
       cy="44.499"
       r="137.521"
       gradientTransform="translate(0,-0.095)"
       gradientUnits="userSpaceOnUse"><stop
         offset=".153"
         stop-color="#810220"
         id="stop13" /><stop
         offset=".167"
         stop-color="#920b27"
         stop-opacity=".861"
         id="stop14" /><stop
         offset=".216"
         stop-color="#cb2740"
         stop-opacity=".398"
         id="stop15" /><stop
         offset=".253"
         stop-color="#ef394f"
         stop-opacity=".11"
         id="stop16" /><stop
         offset=".272"
         stop-color="#fc4055"
         stop-opacity="0"
         id="stop17" /></radialGradient><radialGradient
       id="e"
       cx="31.878"
       cy="42.77"
       r="137.521"
       gradientTransform="translate(0,-0.095)"
       gradientUnits="userSpaceOnUse"><stop
         offset=".113"
         stop-color="#810220"
         id="stop18" /><stop
         offset=".133"
         stop-color="#920b27"
         stop-opacity=".861"
         id="stop19" /><stop
         offset=".204"
         stop-color="#cb2740"
         stop-opacity=".398"
         id="stop20" /><stop
         offset=".257"
         stop-color="#ef394f"
         stop-opacity=".11"
         id="stop21" /><stop
         offset=".284"
         stop-color="#fc4055"
         stop-opacity="0"
         id="stop22" /></radialGradient><linearGradient
       id="f"
       x1="-1212.61"
       y1="-525.103"
       x2="-1189.052"
       y2="-484.299"
       gradientTransform="translate(1258.441,532.89)"
       gradientUnits="userSpaceOnUse"><stop
         offset="0"
         stop-color="#ffbd4f"
         id="stop23" /><stop
         offset=".508"
         stop-color="#ff9640"
         stop-opacity="0"
         id="stop24" /></linearGradient><radialGradient
       id="g"
       cx="-1255.933"
       cy="-77.395"
       r="88.863"
       gradientTransform="matrix(0.959,0,0,0.961,1273.896,86.468)"
       gradientUnits="userSpaceOnUse"><stop
         offset="0"
         stop-color="#ff9640"
         id="stop25" /><stop
         offset=".8"
         stop-color="#fc4055"
         id="stop26" /></radialGradient><radialGradient
       id="h"
       cx="-1255.933"
       cy="-77.395"
       r="88.863"
       gradientTransform="matrix(0.959,0,0,0.961,1273.896,86.468)"
       gradientUnits="userSpaceOnUse"><stop
         offset=".084"
         stop-color="#ffde67"
         id="stop27" /><stop
         offset=".147"
         stop-color="#ffdc66"
         stop-opacity=".968"
         id="stop28" /><stop
         offset=".246"
         stop-color="#ffd562"
         stop-opacity=".879"
         id="stop29" /><stop
         offset=".369"
         stop-color="#ffcb5d"
         stop-opacity=".734"
         id="stop30" /><stop
         offset=".511"
         stop-color="#ffbc55"
         stop-opacity=".533"
         id="stop31" /><stop
         offset=".667"
         stop-color="#ffaa4b"
         stop-opacity=".28"
         id="stop32" /><stop
         offset=".822"
         stop-color="#ff9640"
         stop-opacity="0"
         id="stop33" /></radialGradient><radialGradient
       id="i"
       cx="49.941"
       cy="38.654"
       r="41.79"
       gradientTransform="matrix(0.247,0.971,-1.011,0.259,76.681,-19.851)"
       gradientUnits="userSpaceOnUse"><stop
         offset=".363"
         stop-color="#fc4055"
         id="stop34" /><stop
         offset=".443"
         stop-color="#fd604d"
         stop-opacity=".633"
         id="stop35" /><stop
         offset=".545"
         stop-color="#fe8644"
         stop-opacity=".181"
         id="stop36" /><stop
         offset=".59"
         stop-color="#ff9640"
         stop-opacity="0"
         id="stop37" /></radialGradient><radialGradient
       id="j"
       cx="42.737"
       cy="42.193"
       r="41.79"
       gradientTransform="translate(0,-0.095)"
       gradientUnits="userSpaceOnUse"><stop
         offset=".216"
         stop-color="#fc4055"
         stop-opacity=".8"
         id="stop38" /><stop
         offset=".267"
         stop-color="#fd5251"
         stop-opacity=".633"
         id="stop39" /><stop
         offset=".41"
         stop-color="#fe8345"
         stop-opacity=".181"
         id="stop40" /><stop
         offset=".474"
         stop-color="#ff9640"
         stop-opacity="0"
         id="stop41" /></radialGradient><radialGradient
       id="k"
       cx="-1238.198"
       cy="-87.433"
       r="150.195"
       gradientTransform="matrix(0.959,0,0,0.961,1273.896,86.468)"
       gradientUnits="userSpaceOnUse"><stop
         offset=".054"
         stop-color="#fff36e"
         id="stop42" /><stop
         offset=".457"
         stop-color="#ff9640"
         id="stop43" /><stop
         offset=".639"
         stop-color="#ff9640"
         id="stop44" /></radialGradient><linearGradient
       id="l"
       x1="59.052"
       y1="7.083"
       x2="18.155"
       y2="77.92"
       gradientUnits="userSpaceOnUse"><stop
         offset="0"
         stop-color="#fff36e"
         stop-opacity=".8"
         id="stop45" /><stop
         offset=".094"
         stop-color="#fff36e"
         stop-opacity=".699"
         id="stop46" /><stop
         offset=".752"
         stop-color="#fff36e"
         stop-opacity="0"
         id="stop47" /></linearGradient><linearGradient
       id="m"
       x1="40.585"
       y1="-.67"
       x2="62.3"
       y2="62.203"
       gradientUnits="userSpaceOnUse"><stop
         offset="0"
         stop-color="#b833e1"
         id="stop48" /><stop
         offset=".371"
         stop-color="#9059ff"
         id="stop49" /><stop
         offset=".614"
         stop-color="#5b6df8"
         id="stop50" /><stop
         offset="1"
         stop-color="#0090ed"
         id="stop51" /></linearGradient><linearGradient
       id="n"
       x1="-1230.731"
       y1="-532.566"
       x2="-1190.37"
       y2="-492.205"
       gradientTransform="translate(1258.441,532.89)"
       gradientUnits="userSpaceOnUse"><stop
         offset=".805"
         stop-color="#722291"
         stop-opacity="0"
         id="stop52" /><stop
         offset="1"
         stop-color="#592acb"
         stop-opacity=".5"
         id="stop53" /></linearGradient></defs><metadata
     id="metadata5"><rdf:RDF><cc:Work
         rdf:about=""><dc:format>image/svg+xml</dc:format><dc:type
           rdf:resource="http://purl.org/dc/dcmitype/StillImage" /></cc:Work></rdf:RDF></metadata><g
     transform="translate(-40.921303,-17.416526)"
     id="layer1"
     inkscape:groupmode="layer"><circle
       r="0"
       style="fill:none;stroke:#000000;stroke-width:12;stroke-miterlimit:4;stroke-dasharray:none;stroke-opacity:1"
       cy="92"
       cx="75"
       id="path3713" /><circle
       r="30"
       cy="53.902557"
       cx="75.921303"
       id="path834"
       style="fill:none;fill-opacity:1;stroke:#3050ff;stroke-width:10;stroke-miterlimit:4;stroke-dasharray:none;stroke-opacity:1" /><path
       d="m 67.514849,37.91524 a 18,18 0 0 1 21.051475,3.312407 18,18 0 0 1 3.137312,21.078282"
       id="path852"
       style="display:none;fill:none;fill-opacity:1;stroke:#3050ff;stroke-width:5;stroke-miterlimit:4;stroke-dasharray:none;stroke-opacity:1" /><rect
       transform="rotate(-46.234709)"
       ry="1.8669105e-13"
       y="122.08995"
       x="3.7063529"
       height="39.963303"
       width="18.846331"
       id="rect912"
       style="opacity:1;fill:#3050ff;fill-opacity:1;stroke:none;stroke-width:8;stroke-miterlimit:4;stroke-dasharray:none;stroke-opacity:1" /><g
       id="g1"
       transform="matrix(0.44994764,-0.0525599,0.05291504,0.44692781,55.698082,38.920701)"><path
         d="M 71.944,15.7 A 39.47,39.47 0 0 0 41.588,0.009 C 32.3,-0.177 25.884,2.614 22.254,4.858 27.111,2.041 34.14,0.443 40.294,0.522 c 15.83,0.2 32.832,10.981 35.357,30.413 2.9,22.306 -12.637,40.923 -34.493,40.98 C 17.113,71.976 2.488,50.686 6.311,31.563 A 19.735,19.735 0 0 1 6.724,28.776 37.815,37.815 0 0 1 10.917,14.758 C 8.148,16.191 4.622,20.723 2.882,24.921 A 41.355,41.355 0 0 0 0.284,45.1 c 0.06,0.518 0.114,1.035 0.182,1.549 A 40.062,40.062 0 1 0 71.944,15.7 Z m -63.4,3.487 z"
         fill="url(#a)"
         id="path53"
         style="fill:url(#a)" /><path
         d="M 71.944,15.7 A 39.47,39.47 0 0 0 41.588,0.009 C 32.3,-0.177 25.884,2.614 22.254,4.858 27.111,2.041 34.14,0.443 40.294,0.522 c 15.83,0.2 32.832,10.981 35.357,30.413 2.9,22.306 -12.637,40.923 -34.493,40.98 C 17.113,71.976 2.488,50.686 6.311,31.563 A 19.735,19.735 0 0 1 6.724,28.776 37.815,37.815 0 0 1 10.917,14.758 C 8.148,16.191 4.622,20.723 2.882,24.921 A 41.355,41.355 0 0 0 0.284,45.1 c 0.06,0.518 0.114,1.035 0.182,1.549 A 40.062,40.062 0 1 0 71.944,15.7 Z m -63.4,3.487 z"
         fill="url(#b)"
         opacity="0.67"
         id="path54"
         style="fill:url(#b)" /><path
         d="M 71.944,15.7 A 39.47,39.47 0 0 0 41.588,0.009 C 32.3,-0.177 25.884,2.614 22.254,4.858 27.111,2.041 34.14,0.443 40.294,0.522 c 15.83,0.2 32.832,10.981 35.357,30.413 2.9,22.306 -12.637,40.923 -34.493,40.98 C 17.113,71.976 2.488,50.686 6.311,31.563 A 19.735,19.735 0 0 1 6.724,28.776 37.815,37.815 0 0 1 10.917,14.758 C 8.148,16.191 4.622,20.723 2.882,24.921 A 41.355,41.355 0 0 0 0.284,45.1 c 0.06,0.518 0.114,1.035 0.182,1.549 A 40.062,40.062 0 1 0 71.944,15.7 Z m -63.4,3.487 z"
         fill="url(#c)"
         id="path55"
         style="fill:url(#c)" /><path
         d="M 71.944,15.7 A 39.47,39.47 0 0 0 41.588,0.009 C 32.3,-0.177 25.884,2.614 22.254,4.858 27.111,2.041 34.14,0.443 40.294,0.522 c 15.83,0.2 32.832,10.981 35.357,30.413 2.9,22.306 -12.637,40.923 -34.493,40.98 C 17.113,71.976 2.488,50.686 6.311,31.563 A 19.735,19.735 0 0 1 6.724,28.776 37.815,37.815 0 0 1 10.917,14.758 C 8.148,16.191 4.622,20.723 2.882,24.921 A 41.355,41.355 0 0 0 0.284,45.1 c 0.06,0.518 0.114,1.035 0.182,1.549 A 40.062,40.062 0 1 0 71.944,15.7 Z m -63.4,3.487 z"
         fill="url(#d)"
         id="path56"
         style="fill:url(#d)" /><path
         d="M 71.944,15.7 A 39.47,39.47 0 0 0 41.588,0.009 C 32.3,-0.177 25.884,2.614 22.254,4.858 27.111,2.041 34.14,0.443 40.294,0.522 c 15.83,0.2 32.832,10.981 35.357,30.413 2.9,22.306 -12.637,40.923 -34.493,40.98 C 17.113,71.976 2.488,50.686 6.311,31.563 A 19.735,19.735 0 0 1 6.724,28.776 37.815,37.815 0 0 1 10.917,14.758 C 8.148,16.191 4.622,20.723 2.882,24.921 A 41.355,41.355 0 0 0 0.284,45.1 c 0.06,0.518 0.114,1.035 0.182,1.549 A 40.062,40.062 0 1 0 71.944,15.7 Z m -63.4,3.487 z"
         fill="url(#e)"
         id="path57"
         style="fill:url(#e)" /><path
         d="m 75.651,30.935 a 41.01,41.01 0 0 1 0.3,7.247 q 1.99,-0.3 3.987,-0.53 A 40.01,40.01 0 0 0 71.944,15.7 39.47,39.47 0 0 0 41.588,0.009 C 32.3,-0.177 25.884,2.614 22.254,4.858 27.111,2.041 34.14,0.443 40.294,0.522 56.124,0.724 73.126,11.5 75.651,30.935 Z"
         fill="url(#f)"
         id="path58"
         style="fill:url(#f)" /><path
         d="M 76.625,29.826 C 74.374,9.518 56.263,0.39 40.294,0.522 34.139,0.572 27.111,2.041 22.254,4.858 a 19.7,19.7 0 0 0 -3.56,2.7 C 18.823,7.451 19.208,7.134 19.846,6.696 L 19.909,6.653 19.965,6.615 A 26.655,26.655 0 0 1 27.657,3.043 43.5,43.5 0 0 1 40.84,1.5 33.254,33.254 0 0 1 72.09,33.493 C 72.457,46.7 61.648,57.23 49.188,57.84 40.126,58.284 31.588,53.899 27.418,45.127 A 21.68,21.68 0 0 1 25.454,38.794 C 23.478,25.444 32.443,14.059 40.664,11.24 36.229,7.366 25.116,7.629 16.845,13.714 c -5.956,4.382 -9.82,11.049 -11.1,19 a 32.945,32.945 0 0 0 2.34,18 35.3,35.3 0 0 0 30.089,21.443 q 1.489,0.114 2.984,0.113 C 67.62,72.27 79.1,52.183 76.625,29.826 Z"
         fill="url(#g)"
         id="path59"
         style="fill:url(#g)" /><path
         d="M 76.625,29.826 C 74.374,9.518 56.263,0.39 40.294,0.522 34.139,0.572 27.111,2.041 22.254,4.858 a 19.7,19.7 0 0 0 -3.56,2.7 C 18.823,7.451 19.208,7.134 19.846,6.696 L 19.909,6.653 19.965,6.615 A 26.655,26.655 0 0 1 27.657,3.043 43.5,43.5 0 0 1 40.84,1.5 33.254,33.254 0 0 1 72.09,33.493 C 72.457,46.7 61.648,57.23 49.188,57.84 40.126,58.284 31.588,53.899 27.418,45.127 A 21.68,21.68 0 0 1 25.454,38.794 C 23.478,25.444 32.443,14.059 40.664,11.24 36.229,7.366 25.116,7.629 16.845,13.714 c -5.956,4.382 -9.82,11.049 -11.1,19 a 32.945,32.945 0 0 0 2.34,18 35.3,35.3 0 0 0 30.089,21.443 q 1.489,0.114 2.984,0.113 C 67.62,72.27 79.1,52.183 76.625,29.826 Z"
         fill="url(#h)"
         id="path60"
         style="fill:url(#h)" /><path
         d="M 76.625,29.826 C 74.374,9.518 56.263,0.39 40.294,0.522 34.139,0.572 27.111,2.041 22.254,4.858 a 19.7,19.7 0 0 0 -3.56,2.7 C 18.823,7.451 19.208,7.134 19.846,6.696 L 19.909,6.653 19.965,6.615 A 26.655,26.655 0 0 1 27.657,3.043 43.5,43.5 0 0 1 40.84,1.5 33.254,33.254 0 0 1 72.09,33.493 C 72.457,46.7 61.648,57.23 49.188,57.84 40.126,58.284 31.588,53.899 27.418,45.127 A 21.68,21.68 0 0 1 25.454,38.794 C 23.478,25.444 32.443,14.059 40.664,11.24 36.229,7.366 25.116,7.629 16.845,13.714 c -5.956,4.382 -9.82,11.049 -11.1,19 a 32.945,32.945 0 0 0 2.34,18 35.3,35.3 0 0 0 30.089,21.443 q 1.489,0.114 2.984,0.113 C 67.62,72.27 79.1,52.183 76.625,29.826 Z"
         style="mix-blend-mode:multiply;fill:url(#i)"
         opacity="0.53"
         fill="url(#i)"
         id="path61" /><path
         d="M 76.625,29.826 C 74.374,9.518 56.263,0.39 40.294,0.522 34.139,0.572 27.111,2.041 22.254,4.858 a 19.7,19.7 0 0 0 -3.56,2.7 C 18.823,7.451 19.208,7.134 19.846,6.696 L 19.909,6.653 19.965,6.615 A 26.655,26.655 0 0 1 27.657,3.043 43.5,43.5 0 0 1 40.84,1.5 33.254,33.254 0 0 1 72.09,33.493 C 72.457,46.7 61.648,57.23 49.188,57.84 40.126,58.284 31.588,53.899 27.418,45.127 A 21.68,21.68 0 0 1 25.454,38.794 C 23.478,25.444 32.443,14.059 40.664,11.24 36.229,7.366 25.116,7.629 16.845,13.714 c -5.956,4.382 -9.82,11.049 -11.1,19 a 32.945,32.945 0 0 0 2.34,18 35.3,35.3 0 0 0 30.089,21.443 q 1.489,0.114 2.984,0.113 C 67.62,72.27 79.1,52.183 76.625,29.826 Z"
         style="mix-blend-mode:multiply;fill:url(#j)"
         opacity="0.53"
         fill="url(#j)"
         id="path62" /><path
         d="M 49.188,57.84 C 66.288,56.8 73.608,42.64 74.067,32.595 74.783,16.9 65.472,-0.02 40.84,1.5 A 43.5,43.5 0 0 0 27.657,3.046 28.855,28.855 0 0 0 19.965,6.618 l -0.056,0.038 -0.063,0.043 q -0.574,0.4 -1.123,0.842 A 33.482,33.482 0 0 1 39.7,3.605 c 14.142,1.856 27.072,12.857 27.072,27.373 0,11.169 -8.631,19.7 -18.738,19.087 -15.015,-0.9 -18.8,-16.3 -10.989,-22.954 -2.106,-0.453 -6.064,0.435 -8.82,4.555 -2.473,3.7 -2.333,9.41 -0.807,13.461 a 22.118,22.118 0 0 0 21.77,12.713 z"
         fill="url(#k)"
         id="path63"
         style="fill:url(#k)" /><path
         d="m 71.944,15.7 a 39.958,39.958 0 0 0 -3.482,-3.982 31.342,31.342 0 0 0 -3.177,-2.926 24.393,24.393 0 0 1 1.849,1.79 22.466,22.466 0 0 1 4.882,8.144 c 2.089,6.329 1.953,14.25 -2.036,20.471 A 23.539,23.539 0 0 1 49.125,50.092 c -0.361,0 -0.725,0 -1.091,-0.027 -15.015,-0.9 -18.8,-16.3 -10.988,-22.954 -2.107,-0.453 -6.065,0.435 -8.821,4.555 -2.473,3.7 -2.333,9.41 -0.807,13.461 A 21.679,21.679 0 0 1 25.455,38.794 C 23.478,25.444 32.443,14.059 40.664,11.24 36.229,7.366 25.116,7.629 16.845,13.714 A 27.845,27.845 0 0 0 6.758,28.314 38.5,38.5 0 0 1 10.917,14.761 C 8.148,16.194 4.622,20.726 2.882,24.924 A 41.355,41.355 0 0 0 0.284,45.1 c 0.06,0.518 0.114,1.035 0.182,1.549 A 40.062,40.062 0 1 0 71.944,15.7 Z"
         fill="url(#l)"
         id="path64"
         style="fill:url(#l)" /><path
         d="M 72.016,18.726 A 22.458,22.458 0 0 0 67.134,10.582 30.224,30.224 0 0 0 58.04,4.089 40.518,40.518 0 0 0 49.1,0.92 39.834,39.834 0 0 0 32.535,0.82 c -5.683,1.2 -10.68,3.659 -13.841,6.733 a 32.1,32.1 0 0 1 8.031,-3.2 33.565,33.565 0 0 1 31.173,8.1 27.01,27.01 0 0 1 4.329,5.3 c 4.895,7.959 4.432,17.965 0.615,23.866 -2.835,4.384 -8.907,8.5 -14.572,8.452 A 23.629,23.629 0 0 0 69.98,39.2 c 3.989,-6.224 4.125,-14.145 2.036,-20.474 z"
         fill="url(#m)"
         id="path65"
         style="fill:url(#m)" /><path
         d="M 72.016,18.726 A 22.458,22.458 0 0 0 67.134,10.582 30.224,30.224 0 0 0 58.04,4.089 40.518,40.518 0 0 0 49.1,0.92 39.834,39.834 0 0 0 32.535,0.82 c -5.683,1.2 -10.68,3.659 -13.841,6.733 a 32.1,32.1 0 0 1 8.031,-3.2 33.565,33.565 0 0 1 31.173,8.1 27.01,27.01 0 0 1 4.329,5.3 c 4.895,7.959 4.432,17.965 0.615,23.866 -2.835,4.384 -8.907,8.5 -14.572,8.452 A 23.629,23.629 0 0 0 69.98,39.2 c 3.989,-6.224 4.125,-14.145 2.036,-20.474 z"
         fill="url(#n)"
         id="path66"
         style="fill:url(#n)" /></g></g></svg>
